<?xml version="1.0" encoding="utf-8"?>
<!-- Generator: Adobe Illustrator 23.1.0, SVG Export Plug-In . SVG Version: 6.00 Build 0)  -->
<svg version="1.1" id="Layer_1" xmlns="http://www.w3.org/2000/svg" xmlns:xlink="http://www.w3.org/1999/xlink" x="0px" y="0px"
	 viewBox="0 0 123 62" style="enable-background:new 0 0 123 62;" xml:space="preserve">
<style type="text/css">
	.st0{fill:#9FA0A0;}
	.st1{fill:#FFFFFF;}
	.st2{fill:#727171;}
	.st3{fill:#494949;}
</style>
<path class="st0" d="M30.16,15.08c0,8.33-6.75,15.08-15.08,15.08C6.75,30.16,0,23.41,0,15.08C0,6.75,6.75,0,15.08,0
	C23.41,0,30.16,6.75,30.16,15.08z"/>
<path class="st0" d="M60.8,15.08c0,8.33-6.75,15.08-15.08,15.08c-8.33,0-15.08-6.75-15.08-15.08C30.64,6.75,37.39,0,45.72,0
	C54.05,0,60.8,6.75,60.8,15.08z"/>
<path class="st1" d="M22.96,17.39l0.48-3.72h-3.69v-2.38c0-1.08,0.3-1.81,1.85-1.81l1.97,0V6.15C23.23,6.1,22.06,6,20.7,6
	c-2.84,0-4.79,1.74-4.79,4.92v2.75H12.7v3.72h3.21v9.55h3.84v-9.55H22.96z"/>
<path class="st1" d="M39.53,6.74h12.83c1.22,0,2.22,1,2.22,2.22v12.83c0,1.22-1,2.22-2.22,2.22H39.53c-1.22,0-2.22-1-2.22-2.22V8.96
	C37.32,7.74,38.31,6.74,39.53,6.74z M49.9,8.66c-0.43,0-0.78,0.35-0.78,0.78v1.86c0,0.43,0.35,0.78,0.78,0.78h1.95
	c0.43,0,0.78-0.35,0.78-0.78V9.44c0-0.43-0.35-0.78-0.78-0.78H49.9z M52.63,14.04h-1.52c0.14,0.47,0.22,0.97,0.22,1.48
	c0,2.87-2.4,5.2-5.37,5.2c-2.96,0-5.37-2.33-5.37-5.2c0-0.52,0.08-1.01,0.22-1.48h-1.58v7.29c0,0.38,0.31,0.68,0.69,0.68h12.02
	c0.38,0,0.69-0.31,0.69-0.68V14.04z M45.97,11.98c-1.91,0-3.47,1.5-3.47,3.36c0,1.86,1.55,3.36,3.47,3.36c1.92,0,3.47-1.5,3.47-3.36
	C49.43,13.48,47.88,11.98,45.97,11.98z"/>
<path class="st0" d="M91.86,15.08c0,8.33-6.75,15.08-15.08,15.08c-8.33,0-15.08-6.75-15.08-15.08C61.7,6.75,68.45,0,76.78,0
	C85.1,0,91.86,6.75,91.86,15.08z"/>
<path class="st1" d="M81,7.86h-8.5v8.67h4.16c-0.05,0.8-0.47,2.44-2.81,4.41c0,0-0.02,0.33,0.04,0.43l2.47,2.58
	c0,0,0.25,0.1,0.45-0.08c0,0,3.8-2.77,4.19-7.34l0,0V7.86z"/>
<path class="st0" d="M123,15.08c0,8.33-6.75,15.08-15.08,15.08c-8.33,0-15.08-6.75-15.08-15.08C92.84,6.75,99.59,0,107.92,0
	C116.25,0,123,6.75,123,15.08z"/>
<g>
	<path class="st1" d="M114.41,7.89h-12.98c-1.57,0-2.85,1.28-2.85,2.85v7.22c0,1.57,1.28,2.85,2.85,2.85h4.84l1.63,3.3l1.83-3.3
		h4.67c1.57,0,2.85-1.28,2.85-2.85v-7.22C117.26,9.16,115.98,7.89,114.41,7.89z"/>
	<g>
		<path class="st2" d="M114.42,12.93v0.25c-0.28-0.18-0.61-0.28-0.96-0.28c-0.99,0-1.8,0.8-1.8,1.8c0,0.99,0.8,1.8,1.8,1.8
			c0.35,0,0.68-0.1,0.96-0.28v0.73c-0.24,0.47-0.98,0.39-0.98,0.39v0.95c2.09,0,2.14-1.33,2.14-1.33v-4.01H114.42z M113.46,15.39
			c-0.39,0-0.7-0.31-0.7-0.7c0-0.39,0.31-0.7,0.7-0.7c0.39,0,0.7,0.31,0.7,0.7C114.16,15.07,113.84,15.39,113.46,15.39z"/>
		<path class="st2" d="M109.21,12.71c-1.07,0-1.95,0.87-1.95,1.95c0,1.07,0.87,1.94,1.95,1.94c1.07,0,1.94-0.87,1.94-1.94
			C111.16,13.58,110.29,12.71,109.21,12.71z M109.21,15.41c-0.42,0-0.76-0.34-0.76-0.76c0-0.42,0.34-0.76,0.76-0.76
			c0.42,0,0.76,0.34,0.76,0.76C109.97,15.08,109.63,15.41,109.21,15.41z"/>
		<path class="st2" d="M102.71,12.67c-0.35,0-0.68,0.1-0.96,0.27v-1.55h-1.16v4.98h1.16v-0.27c0.28,0.17,0.61,0.27,0.96,0.27
			c1.02,0,1.85-0.83,1.85-1.85C104.56,13.49,103.74,12.67,102.71,12.67z M102.71,15.24c-0.4,0-0.72-0.32-0.72-0.72
			c0-0.4,0.32-0.72,0.72-0.72s0.72,0.32,0.72,0.72C103.43,14.91,103.11,15.24,102.71,15.24z"/>
		<path class="st2" d="M104.88,11.34v1.01c0,0,0.49-0.04,0.49,0.47h0v3.55h1.16V12.8h0C106.51,12.62,106.36,11.34,104.88,11.34z"/>
	</g>
</g>
<path class="st3" d="M30.16,47.08c0,8.33-6.75,15.08-15.08,15.08C6.75,62.16,0,55.41,0,47.08C0,38.75,6.75,32,15.08,32
	C23.41,32,30.16,38.75,30.16,47.08z"/>
<path class="st3" d="M60.8,47.08c0,8.33-6.75,15.08-15.08,15.08c-8.33,0-15.08-6.75-15.08-15.08c0-8.33,6.75-15.08,15.08-15.08
	C54.05,32,60.8,38.75,60.8,47.08z"/>
<path class="st1" d="M22.96,49.39l0.48-3.72h-3.69v-2.38c0-1.08,0.3-1.81,1.85-1.81l1.97,0v-3.33C23.23,38.1,22.06,38,20.7,38
	c-2.84,0-4.79,1.74-4.79,4.92v2.75H12.7v3.72h3.21v9.55h3.84v-9.55H22.96z"/>
<path class="st1" d="M39.53,38.74h12.83c1.22,0,2.22,1,2.22,2.22v12.83c0,1.22-1,2.22-2.22,2.22H39.53c-1.22,0-2.22-1-2.22-2.22
	V40.96C37.32,39.74,38.31,38.74,39.53,38.74z M49.9,40.66c-0.43,0-0.78,0.35-0.78,0.78v1.86c0,0.43,0.35,0.78,0.78,0.78h1.95
	c0.43,0,0.78-0.35,0.78-0.78v-1.86c0-0.43-0.35-0.78-0.78-0.78H49.9z M52.63,46.04h-1.52c0.14,0.47,0.22,0.97,0.22,1.48
	c0,2.87-2.4,5.2-5.37,5.2c-2.96,0-5.37-2.33-5.37-5.2c0-0.52,0.08-1.01,0.22-1.48h-1.58v7.29c0,0.38,0.31,0.68,0.69,0.68h12.02
	c0.38,0,0.69-0.31,0.69-0.68V46.04z M45.97,43.98c-1.91,0-3.47,1.5-3.47,3.36c0,1.86,1.55,3.36,3.47,3.36c1.92,0,3.47-1.5,3.47-3.36
	C49.43,45.48,47.88,43.98,45.97,43.98z"/>
<path class="st3" d="M91.86,47.08c0,8.33-6.75,15.08-15.08,15.08c-8.33,0-15.08-6.75-15.08-15.08C61.7,38.75,68.45,32,76.78,32
	C85.1,32,91.86,38.75,91.86,47.08z"/>
<path class="st1" d="M81,39.86h-8.5v8.67h4.16c-0.05,0.8-0.47,2.44-2.81,4.41c0,0-0.02,0.33,0.04,0.43l2.47,2.58
	c0,0,0.25,0.1,0.45-0.08c0,0,3.8-2.77,4.19-7.34l0,0V39.86z"/>
<path class="st3" d="M123,47.08c0,8.33-6.75,15.08-15.08,15.08c-8.33,0-15.08-6.75-15.08-15.08c0-8.33,6.75-15.08,15.08-15.08
	C116.25,32,123,38.75,123,47.08z"/>
<g>
	<path class="st1" d="M114.41,39.89h-12.98c-1.57,0-2.85,1.28-2.85,2.85v7.22c0,1.57,1.28,2.85,2.85,2.85h4.84l1.63,3.3l1.83-3.3
		h4.67c1.57,0,2.85-1.28,2.85-2.85v-7.22C117.26,41.16,115.98,39.89,114.41,39.89z"/>
	<g>
		<path class="st2" d="M114.42,44.93v0.25c-0.28-0.18-0.61-0.28-0.96-0.28c-0.99,0-1.8,0.8-1.8,1.8c0,0.99,0.8,1.8,1.8,1.8
			c0.35,0,0.68-0.1,0.96-0.28v0.73c-0.24,0.47-0.98,0.39-0.98,0.39v0.95c2.09,0,2.14-1.33,2.14-1.33v-4.01H114.42z M113.46,47.39
			c-0.39,0-0.7-0.31-0.7-0.7c0-0.39,0.31-0.7,0.7-0.7c0.39,0,0.7,0.31,0.7,0.7C114.16,47.07,113.84,47.39,113.46,47.39z"/>
		<path class="st2" d="M109.21,44.71c-1.07,0-1.95,0.87-1.95,1.95c0,1.07,0.87,1.94,1.95,1.94c1.07,0,1.94-0.87,1.94-1.94
			C111.16,45.58,110.29,44.71,109.21,44.71z M109.21,47.41c-0.42,0-0.76-0.34-0.76-0.76c0-0.42,0.34-0.76,0.76-0.76
			c0.42,0,0.76,0.34,0.76,0.76C109.97,47.08,109.63,47.41,109.21,47.41z"/>
		<path class="st2" d="M102.71,44.67c-0.35,0-0.68,0.1-0.96,0.27v-1.55h-1.16v4.98h1.16v-0.27c0.28,0.17,0.61,0.27,0.96,0.27
			c1.02,0,1.85-0.83,1.85-1.85C104.56,45.49,103.74,44.67,102.71,44.67z M102.71,47.24c-0.4,0-0.72-0.32-0.72-0.72
			s0.32-0.72,0.72-0.72s0.72,0.32,0.72,0.72S103.11,47.24,102.71,47.24z"/>
		<path class="st2" d="M104.88,43.34v1.01c0,0,0.49-0.04,0.49,0.47h0v3.55h1.16V44.8h0C106.51,44.62,106.36,43.34,104.88,43.34z"/>
	</g>
</g>
</svg>
