<svg height="512" viewBox="0 0 64 64" width="512" xmlns="http://www.w3.org/2000/svg"><g id="pizza-food-delivery-restaurant-hand"><path d="m13 43h38v8h-38z" fill="#806749"/><path d="m56 43h-48l2-40h44z" fill="#b39a7c"/><path d="m61 38.4v9.39a3.993 3.993 0 0 1 -.67 2.22l-1.33 1.99-1 4h-10v-2l-1-2v-2.53a1.974 1.974 0 0 1 .21-.89l1.42-2.84a1.982 1.982 0 0 0 .11-1.53l-.4-1.21-.82-2.45a1.978 1.978 0 0 1 -.11-.68 2.141 2.141 0 0 1 3.82-1.33l1.98 2.47a1.549 1.549 0 0 0 1.22.59 1.6 1.6 0 0 0 .7-.17 1.568 1.568 0 0 0 .87-1.4v-.03l-.65-12h2.01a2 2 0 0 1 1.96 1.61l1.6 8a4.15 4.15 0 0 1 .08.79z" fill="#f09898"/><path d="m60 56v5h-14v-5h2 10z" fill="#ec455a"/><path d="m18 56v5h-14v-5h2 10z" fill="#ec455a"/><path d="m17 49.47v2.53l-1 2v2h-10l-1-4-1.33-1.99a3.993 3.993 0 0 1 -.67-2.22v-9.39a4.15 4.15 0 0 1 .08-.79l1.6-8a2 2 0 0 1 1.96-1.61h2.01l-.65 12v.03a1.569 1.569 0 0 0 2.79.98l1.98-2.47a2.142 2.142 0 0 1 3.71 2.01l-.82 2.45-.4 1.21a1.982 1.982 0 0 0 .11 1.53l1.42 2.84a1.974 1.974 0 0 1 .21.89z" fill="#f09898"/><path d="m37 43-.43 1.73a3.014 3.014 0 0 1 -2.91 2.27h-3.32a3.014 3.014 0 0 1 -2.91-2.27l-.43-1.73z" fill="#d9ccbc"/><path d="m51 30h-6a30.843 30.843 0 0 0 -5.63-17.82l4.9-3.45a36.8 36.8 0 0 1 6.73 21.27z" fill="#ef8746"/><circle cx="25" cy="28" fill="#dd5528" r="2"/><path d="m35 21a3 3 0 0 1 -3-3 2.82 2.82 0 0 1 .09-.71l3.22-2.27h.01a3 3 0 0 1 -.32 5.98z" fill="#dd5528"/><path d="m27 28a2 2 0 1 0 -2 2h-11l18.09-12.71a2.82 2.82 0 0 0 -.09.71 3 3 0 1 0 3.32-2.98l4.05-2.84a30.843 30.843 0 0 1 5.63 17.82h-3v5a2 2 0 0 1 -4 0v-5h-4v2a2 2 0 0 1 -4 0v-2h-5a2.006 2.006 0 0 0 2-2z" fill="#f3ac3c"/><path d="m61.9 37.42-1.6-8.01a3 3 0 0 0 -2.94-2.41h-1.06l-1.3-24.05a1.007 1.007 0 0 0 -1-.95h-44a1.007 1.007 0 0 0 -1 .95l-1.3 24.05h-1.06a3 3 0 0 0 -2.94 2.41l-1.6 8.01a4.591 4.591 0 0 0 -.1.98v9.39a4.959 4.959 0 0 0 .84 2.77l1.23 1.85.65 2.59h-.72a1 1 0 0 0 -1 1v5a1 1 0 0 0 1 1h14a1 1 0 0 0 1-1v-5a1 1 0 0 0 -1-1h-1v-.76l.89-1.79a1 1 0 0 0 .11-.45h28a1 1 0 0 0 .11.45l.89 1.79v.76h-1a1 1 0 0 0 -1 1v5a1 1 0 0 0 1 1h14a1 1 0 0 0 1-1v-5a1 1 0 0 0 -1-1h-.72l.65-2.59 1.23-1.85a4.959 4.959 0 0 0 .84-2.77v-9.39a4.591 4.591 0 0 0 -.1-.98zm-50.95-33.42h42.1l1.95 36.03a.571.571 0 0 1 -.31.51.583.583 0 0 1 -.7-.15l-1.98-2.48a3.146 3.146 0 0 0 -5.44 2.96l.38 1.13h-29.9l.38-1.13a3.146 3.146 0 0 0 -5.44-2.96l-1.98 2.48a.58.58 0 0 1 -.7.15.564.564 0 0 1 -.31-.49zm24.77 40-.12.49a1.992 1.992 0 0 1 -1.94 1.51h-3.32a1.992 1.992 0 0 1 -1.94-1.51l-.12-.49zm-31.22 5.45a2.97 2.97 0 0 1 -.5-1.66v-9.39a2.88 2.88 0 0 1 .06-.59l1.6-8.01a1 1 0 0 1 .98-.8h.96l-.6 11.03a2.552 2.552 0 0 0 1.42 2.3 2.6 2.6 0 0 0 3.15-.69l1.98-2.48a1.145 1.145 0 0 1 1.98 1.08l-1.22 3.66a2.99 2.99 0 0 0 .17 2.29l1.41 2.84a.956.956 0 0 1 .11.44v2.29l-.89 1.79a1 1 0 0 0 -.11.45v1h-8.22l-.81-3.24a.871.871 0 0 0 -.14-.31zm12.5 10.55h-12v-3h12zm29.32-11.87a2.971 2.971 0 0 0 -.32 1.34v.53h-28v-.53a2.971 2.971 0 0 0 -.32-1.34l-1.41-2.84a1 1 0 0 1 -.06-.76l.18-.53h9.83l.24.97a4 4 0 0 0 3.88 3.03h3.32a4 4 0 0 0 3.88-3.03l.24-.97h9.83l.18.53a1 1 0 0 1 -.06.76zm12.68 11.87h-12v-3h12zm1-12.21a2.97 2.97 0 0 1 -.5 1.66l-1.33 2a.871.871 0 0 0 -.14.31l-.81 3.24h-8.22v-1a1 1 0 0 0 -.11-.45l-.89-1.79v-2.29a.956.956 0 0 1 .11-.44l1.41-2.84a2.99 2.99 0 0 0 .17-2.29l-1.22-3.66a1.145 1.145 0 0 1 1.98-1.08l1.98 2.47a2.564 2.564 0 0 0 4.57-1.68l-.59-10.95h.95a1 1 0 0 1 .98.8l1.6 8.01a2.88 2.88 0 0 1 .06.59z"/><path d="m45.09 8.15a1 1 0 0 0 -1.39-.24l-30.27 21.27a1 1 0 0 0 -.38 1.12.987.987 0 0 0 .95.7h15v1a3 3 0 0 0 6 0v-1h2v4a3 3 0 0 0 6 0v-4h8a1 1 0 0 0 1-1 37.791 37.791 0 0 0 -6.91-21.85zm-12.07 9.71 2.53-1.78a1.969 1.969 0 0 1 1.45 1.92 2 2 0 0 1 -4 0 .675.675 0 0 1 .02-.14zm-8.02 11.14a1 1 0 1 1 1-1 1 1 0 0 1 -1 1zm17 0a1 1 0 0 0 -1 1v5a1 1 0 0 1 -2 0v-5a1 1 0 0 0 -1-1h-4a1 1 0 0 0 -1 1v2a1 1 0 0 1 -2 0v-2a1 1 0 0 0 -1-1h-2.18a3 3 0 1 0 -5.64 0h-5.02l14.03-9.85a3.988 3.988 0 0 0 7.81-1.15 3.931 3.931 0 0 0 -1.62-3.2l1.71-1.21a29.7 29.7 0 0 1 4.87 15.41zm3.96 0a31.652 31.652 0 0 0 -5.23-16.56l3.29-2.31a35.807 35.807 0 0 1 5.97 18.87z"/><path d="m28 23h2v2h-2z"/><path d="m39 22h2v2h-2z"/><path d="m33 26h2v2h-2z"/></g></svg>